<?xml version="1.0" encoding="UTF-8"?> <svg xmlns="http://www.w3.org/2000/svg" id="Calque_1" data-name="Calque 1" viewBox="0 0 831 410"><defs><style>.cls-1{fill:#2e3634;}.cls-2{fill:#00a9c0;}</style></defs><path class="cls-1" d="M157.74,270H79q-27.54,0-44.78-18T17,205.29v-60.1q0-29.84,17.25-49.43T79.81,76.18l94.61.39L174,113.4H79.5a23.86,23.86,0,0,0-20,10A38,38,0,0,0,51.89,147v54.89q0,13.51,7.19,22.42t19.64,8.87h78.93a27.27,27.27,0,0,0,20.8-8.92,30.51,30.51,0,0,0,8.37-21.7V16.89h34.9v183q0,28.31-17.45,48.84Q185.67,270,157.74,270Zm98,0V73.47h33.07V270Zm296.28,0V144a30.06,30.06,0,0,0-8.62-21.71,28.24,28.24,0,0,0-21.13-8.92H469.08V270h-34.9V113.4H385.09a28,28,0,0,0-21,8.92A30.14,30.14,0,0,0,355.48,144V270h-34.9V144q0-29.09,18.42-48.27t46.33-19.19H522.2q27.91,0,46.34,20.54T587,146.75V270Zm162,12.16A101.93,101.93,0,1,1,816,180.27,102,102,0,0,1,714.06,282.2Zm0-167.89a66,66,0,1,0,66,66A66,66,0,0,0,714.06,114.31ZM157.74,270H79q-27.54,0-44.78-18T17,205.29v-60.1q0-29.84,17.25-49.43T79.81,76.18l94.61.39L174,113.4H79.5a23.86,23.86,0,0,0-20,10A38,38,0,0,0,51.89,147v54.89q0,13.51,7.19,22.42t19.64,8.87h78.93a27.27,27.27,0,0,0,20.8-8.92,30.51,30.51,0,0,0,8.37-21.7V16.89h34.9v183q0,28.31-17.45,48.84Q185.67,270,157.74,270Z"></path><path class="cls-2" d="M255.78,51.57V16.83h33.07V51.57Z"></path><path class="cls-2" d="M784.9,297.18c-70.77,2.33-177,18.65-166,96.65,0,0,49.67-75.22,179.05-92.24C812.74,299.65,819.37,296.05,784.9,297.18Z"></path><path class="cls-1" d="M54,356.65H19.41v-9.94H52.56q4.71,0,4.71-6.38c0-3.76-1.4-5.65-4.18-5.65H30.6A11.79,11.79,0,0,1,21,330a16.44,16.44,0,0,1-3.56-10.67,17,17,0,0,1,3.66-10.88,11.59,11.59,0,0,1,9.52-4.6H65.22v9.93H32.06q-4.7,0-4.7,5.34c0,3.76,1.36,5.65,4.08,5.65H54a11.65,11.65,0,0,1,9.52,4.55,16.77,16.77,0,0,1,3.65,10.82A19.43,19.43,0,0,1,64,351.42,11.34,11.34,0,0,1,54,356.65Z"></path><path class="cls-1" d="M125.28,356.84h-22a15.41,15.41,0,0,1-12-5.27,18.78,18.78,0,0,1-4.71-13V322.46q0-7.84,4.66-12.8a15.84,15.84,0,0,1,12.1-5h21.62a15.81,15.81,0,0,1,12,5,17.87,17.87,0,0,1,4.7,12.75v16.11a19.27,19.27,0,0,1-4.34,12.69A14.9,14.9,0,0,1,125.28,356.84Zm7-33.26a10.28,10.28,0,0,0-2-6.32,6.37,6.37,0,0,0-5.36-2.73H103.19a6.36,6.36,0,0,0-5.36,2.73,10.29,10.29,0,0,0-2,6.32v14.49a10.09,10.09,0,0,0,2,6.27,6.4,6.4,0,0,0,5.36,2.67h21.74a6.42,6.42,0,0,0,5.36-2.67,10.08,10.08,0,0,0,2-6.27Z"></path><path class="cls-1" d="M177.44,314.22a6.31,6.31,0,0,0-5.26,2.76,10.25,10.25,0,0,0-2.06,6.29v8.53H208v9.83H170.12v15.21h-9.31V322.7a18.89,18.89,0,0,1,4.69-13,15.27,15.27,0,0,1,11.93-5.27h30.86v9.82Z"></path><path class="cls-1" d="M260.78,315v41.78h-9.31V315H227.78v-9.83h56.79V315Z"></path><path class="cls-1" d="M356.3,356.73H319.79a16.36,16.36,0,0,1-12.31-5.17,17.78,17.78,0,0,1-5-12.82V305.12h9.31v33.62a8,8,0,0,0,2.29,5.79,7.47,7.47,0,0,0,5.61,2.38h13.1V305.12h9.31v41.79h14.2a7.53,7.53,0,0,0,5.64-2.38,8,8,0,0,0,2.3-5.79V305.12h9.3V338a19,19,0,0,1-4.75,13A15.9,15.9,0,0,1,356.3,356.73Z"></path><path class="cls-1" d="M446.75,356.84h-9.3V329H408.28a6.75,6.75,0,0,0-5.8,2.65,11.15,11.15,0,0,0-2,6.81,8.67,8.67,0,0,0,2.27,6,7.11,7.11,0,0,0,5.49,2.55h23.27v9.83H408.28q-8,0-12.52-5.6t-4.55-14a18,18,0,0,1,4.91-12.86,16.07,16.07,0,0,1,12.16-5.18h28.54q-2.47-5-6.72-5H398.86V304.4H430a15.38,15.38,0,0,1,12,5.27,18.89,18.89,0,0,1,4.69,13Z"></path><path class="cls-1" d="M504.84,342.24,519.11,349l-.1,7.62h-8l-32.68-15.52v-8.68h24.1q8.79,0,8.79-9.36,0-8.24-8.38-8.23H483a7.31,7.31,0,0,0-5.54,2.38,8.19,8.19,0,0,0-2.22,5.79v33.62h-9.31V323.84a19.46,19.46,0,0,1,4.86-13.29A15.56,15.56,0,0,1,483,305h21a15,15,0,0,1,12.41,5.68c2.75,3.52,4.14,8.07,4.14,13.65a17.75,17.75,0,0,1-4.09,11.74Q512.39,341,504.84,342.24Z"></path><path class="cls-1" d="M555.77,356.84a15.29,15.29,0,0,1-11.94-5.28,18.84,18.84,0,0,1-4.71-13V322.7a18.86,18.86,0,0,1,4.71-13,15.28,15.28,0,0,1,11.94-5.27H586.7v9.82H555.77A6.3,6.3,0,0,0,550.5,317a10.23,10.23,0,0,0-2.07,6.31v3.33h38v9.83h-38v1.64a10,10,0,0,0,2.07,6.2,6.35,6.35,0,0,0,5.27,2.71H586.7v9.83Z"></path></svg> 